<mxfile host="app.diagrams.net" agent="Mozilla/5.0 (Windows NT 10.0; Win64; x64) AppleWebKit/537.36 (KHTML, like Gecko) Chrome/124.0.0.0 Safari/537.36" version="26.0.8">
  <diagram id="R2lEEEUBdFMjLlhIrx00" name="Page-1">
    <mxGraphModel dx="1434" dy="738" grid="1" gridSize="10" guides="1" tooltips="1" connect="1" arrows="1" fold="1" page="1" pageScale="1" pageWidth="850" pageHeight="1100" math="0" shadow="0" extFonts="Permanent Marker^https://fonts.googleapis.com/css?family=Permanent+Marker">
      <root>
        <mxCell id="0" />
        <mxCell id="1" parent="0" />
        <mxCell id="BIV-QMf-ptA-sOLL1jRT-1" value="Alumno" style="html=1;dashed=0;whiteSpace=wrap;fillColor=#d5e8d4;strokeColor=#82b366;" vertex="1" parent="1">
          <mxGeometry x="460" y="240" width="100" height="50" as="geometry" />
        </mxCell>
        <mxCell id="BIV-QMf-ptA-sOLL1jRT-4" value="" style="rounded=0;orthogonalLoop=1;jettySize=auto;html=1;endArrow=none;startFill=0;" edge="1" parent="1" source="BIV-QMf-ptA-sOLL1jRT-2" target="BIV-QMf-ptA-sOLL1jRT-3">
          <mxGeometry relative="1" as="geometry" />
        </mxCell>
        <mxCell id="BIV-QMf-ptA-sOLL1jRT-2" value="Profesor" style="html=1;dashed=0;whiteSpace=wrap;fillColor=#d5e8d4;strokeColor=#82b366;" vertex="1" parent="1">
          <mxGeometry x="130" y="240" width="100" height="50" as="geometry" />
        </mxCell>
        <mxCell id="BIV-QMf-ptA-sOLL1jRT-5" value="" style="rounded=0;orthogonalLoop=1;jettySize=auto;html=1;endArrow=none;startFill=0;" edge="1" parent="1" source="BIV-QMf-ptA-sOLL1jRT-3" target="BIV-QMf-ptA-sOLL1jRT-1">
          <mxGeometry relative="1" as="geometry" />
        </mxCell>
        <mxCell id="BIV-QMf-ptA-sOLL1jRT-3" value="tiene" style="shape=rhombus;html=1;dashed=0;whiteSpace=wrap;perimeter=rhombusPerimeter;fillColor=#fff2cc;strokeColor=#d6b656;" vertex="1" parent="1">
          <mxGeometry x="320" y="240" width="60" height="50" as="geometry" />
        </mxCell>
      </root>
    </mxGraphModel>
  </diagram>
</mxfile>
